<svg xmlns="http://www.w3.org/2000/svg" style="isolation:isolate" viewBox="0 0 560 240">
    <defs>
        <clipPath id="a">
            <path d="M0 0h560v240H0z"/>
        </clipPath>
    </defs>
    <g clip-path="url(#a)">
        <path fill="rgb(97,147,192)" d="M293.483 182.445c0 7.447-6.038 13.482-13.481 13.482-7.447 0-13.482-6.035-13.482-13.482 0-7.443 6.035-13.484 13.482-13.484 7.443 0 13.481 6.041 13.481 13.484zm67.808 0c0 7.447-6.037 13.484-13.483 13.484-7.442 0-13.48-6.037-13.48-13.484s6.038-13.484 13.48-13.484c7.446 0 13.483 6.037 13.483 13.484zm-135.619 0c0 7.447-6.038 13.482-13.483 13.482s-13.48-6.035-13.48-13.482c0-7.443 6.035-13.484 13.48-13.484s13.483 6.041 13.483 13.484z"/>
        <path fill="rgb(23,23,23)" d="M85.124 91.322v-.263c0-17.651-12.851-32.321-30.894-32.321-18.045 0-30.634 14.41-30.634 32.065v.256c0 17.657 12.849 32.193 30.891 32.193 18.045 0 30.637-14.279 30.637-31.93zm-78.274 0v-.263c0-25.568 19.73-46.988 47.637-46.988 27.911 0 47.38 21.16 47.38 46.732v.256c0 25.575-19.73 46.992-47.637 46.992-27.909 0-47.38-21.16-47.38-46.729zm140.838 1.557c12.072 0 19.602-6.75 19.602-16.227v-.26c0-10.644-7.659-16.224-19.602-16.224h-18.562v32.711h18.562zm-34.528-47.25h35.827c21.286 0 34.528 12.073 34.528 30.375v.26c0 20.377-16.354 31.022-36.346 31.022h-18.043v29.209H113.16V45.629zm81.645 52.44V45.758h15.963V97.42c0 16.875 8.698 25.832 22.976 25.832 14.151 0 22.845-8.44 22.845-25.183V45.758h15.967v51.531c0 27.131-15.319 40.762-39.071 40.762-23.624 0-38.68-13.631-38.68-39.982zm89.099 25.183l9.608-11.423c8.694 7.528 17.522 11.812 28.686 11.812 9.865 0 16.096-4.672 16.096-11.422v-.259c0-6.49-3.636-9.997-20.51-13.891-19.341-4.671-30.245-10.382-30.245-27.127v-.26c0-15.578 12.98-26.351 31.024-26.351 13.241 0 23.753 4.023 32.97 11.423l-8.565 12.07c-8.179-6.099-16.355-9.343-24.665-9.343-9.348 0-14.799 4.8-14.799 10.773v.26c0 7.009 4.155 10.124 21.681 14.279 19.21 4.671 29.074 11.552 29.074 26.611v.257c0 17.006-13.368 27.13-32.449 27.13-13.891 0-27.002-4.802-37.906-14.539z"/>
        <path fill="rgb(97,147,192)" d="M389.264 46.277h17.654l27.388 69.837 27.258-69.837h17.266l-37.644 91.514h-14.151l-37.771-91.514zm100.165-.648h15.956v76.325h47.765v14.541h-63.721V45.629z"/>
    </g>
</svg>
