<?xml version="1.0" encoding="UTF-8" standalone="no"?>
<!DOCTYPE svg PUBLIC "-//W3C//DTD SVG 1.1//EN" "http://www.w3.org/Graphics/SVG/1.1/DTD/svg11.dtd">
<svg xmlns="http://www.w3.org/2000/svg" xmlns:serif="http://www.serif.com/" xmlns:xlink="http://www.w3.org/1999/xlink" width="100%" height="100%" style="fill-rule:evenodd;clip-rule:evenodd;stroke-linejoin:round;stroke-miterlimit:1.41421" version="1.1" viewBox="0 0 268 73" xml:space="preserve">
    <g>
        <path d="M112.78,66.476c0,3.559 -2.884,6.447 -6.447,6.447c-3.556,0 -6.443,-2.888 -6.443,-6.447c0,-3.556 2.887,-6.446 6.443,-6.446c3.563,0 6.447,2.89 6.447,6.446" style="fill:#6d9bd2;fill-rule:nonzero"/>
        <path d="M145.908,66.476c0,3.559 -2.884,6.447 -6.446,6.447c-3.556,0 -6.444,-2.888 -6.444,-6.447c0,-3.556 2.888,-6.446 6.444,-6.446c3.562,0 6.446,2.89 6.446,6.446" style="fill:#6d9bd2;fill-rule:nonzero"/>
        <path d="M179.036,66.476c0,3.559 -2.884,6.447 -6.447,6.447c-3.556,0 -6.443,-2.888 -6.443,-6.447c0,-3.556 2.887,-6.446 6.443,-6.446c3.563,0 6.447,2.89 6.447,6.446" style="fill:#6d9bd2;fill-rule:nonzero"/>
        <path d="M23.625,0c12.203,0.109 23.389,10.225 23.41,23.257c0.015,9.929 -6.664,19.493 -16.372,22.443c-10.535,3.2 -23.084,-1.364 -28.22,-11.169c-7.206,-13.757 2.072,-34.25 20.698,-34.529c0.161,-0.002 0.323,-0.002 0.484,-0.002Zm-0.381,8.879c-4.223,0.04 -8.347,2.063 -10.821,5.483c-5.231,7.232 -2.587,19.456 6.275,22.694c5.54,2.025 12.318,0.12 15.782,-4.791c5.86,-8.309 1.279,-23.036 -10.762,-23.381c-0.158,-0.004 -0.316,-0.005 -0.474,-0.005Z"/>
        <path d="M65.455,46.023l-9.501,0l0,-45.28c6.099,0 12.198,-0.026 18.297,0.001c9.548,0.129 18.962,7.338 16.917,18.661c-0.651,3.602 -2.714,6.915 -5.668,9.069c-3.546,2.584 -8.035,3.579 -12.363,3.597l-7.682,0l0,13.952Zm0,-36.461l0,13.751c5.245,0 11.009,1.124 14.488,-2.246c2.641,-2.558 2.517,-7.602 -0.457,-9.846c-1.698,-1.281 -3.916,-1.636 -5.975,-1.658c-2.685,-0.01 -5.371,-0.001 -8.056,-0.001Z"/>
        <path d="M137.97,26.45c-0.048,7.023 -2.423,14.531 -9.529,18.101c-3.352,1.684 -7.169,2.242 -10.887,2.14c-6.621,-0.182 -13.461,-3.055 -16.599,-9.829c-1.45,-3.131 -1.979,-6.62 -2.002,-10.044c0,0 0,-26.075 0,-26.075l9.501,0c0,8.599 -0.034,17.197 0.001,25.795c0.011,0.92 0.028,1.063 0.071,1.56c0.284,3.317 1.592,6.802 4.731,8.521c4.306,2.358 10.464,1.727 13.341,-2.561c1.447,-2.157 1.858,-4.842 1.868,-7.393l0,-25.922l9.505,0c0,8.569 0.019,17.138 -0.001,25.707Z"/>
        <path d="M162.151,0.125c5.787,0.041 11.473,1.935 16.075,5.576l0.796,0.636l-5.156,7.27l-0.95,-0.703c-3.897,-2.844 -8.657,-5.087 -13.467,-3.863c-2.177,0.553 -4.583,2.39 -3.501,5.509c1.124,3.239 6.732,3.739 10.653,4.776c5.434,1.461 11.135,4.037 12.797,9.221c1.846,5.755 -0.583,12.681 -6.023,15.767c-8.813,4.999 -20.885,1.882 -28.431,-4.743l-0.807,-0.717l5.786,-6.878l0.911,0.783c4.238,3.595 9.566,6.132 15.181,5.046c0.222,-0.043 0.444,-0.094 0.663,-0.153c2.039,-0.552 4.008,-2.049 3.789,-4.777c-0.434,-5.412 -11.934,-5.637 -16.184,-7.458c-5.012,-2.148 -8.649,-7.18 -7.954,-13.325c0.36,-3.178 1.981,-6.183 4.423,-8.244c3.125,-2.636 7.34,-3.733 11.399,-3.723Z"/>
        <path d="M209.382,46.332l-7.953,0l-18.816,-45.588l10.474,0c4.146,10.574 8.293,21.148 12.44,31.723l12.385,-31.723l10.286,0l-18.816,45.588Z" style="fill:#6d9bd2"/>
        <path d="M244.357,37.201l22.818,0l0,8.819l-32.319,0l0,-45.276l9.501,0l0,36.457Z" style="fill:#6d9bd2"/>
    </g>
</svg>
